<svg width="808" height="615" viewBox="0 0 808 615" fill="none" xmlns="http://www.w3.org/2000/svg">
<path opacity="0.5" d="M768 488H692C685.373 488 680 493.373 680 500V561C680 567.627 674.627 573 668 573H587" stroke="#BFBFBF" stroke-linecap="round"/>
<path opacity="0.5" d="M587 218V402.5" stroke="#BFBFBF"/>
<path opacity="0.5" d="M611 224H673.055C679.682 224 685.055 229.373 685.055 236V299C685.055 305.627 690.427 311 697.055 311H770" stroke="#BFBFBF" stroke-linecap="round"/>
<path opacity="0.5" d="M612 205H674.441C681.068 205 686.441 199.627 686.441 193V147C686.441 140.373 691.813 135 698.441 135H773" stroke="#BFBFBF" stroke-linecap="round"/>
<path opacity="0.5" d="M47 392H186C192.627 392 198 397.373 198 404V543" stroke="#BFBFBF" stroke-linecap="round"/>
<path opacity="0.5" d="M47 401V585.5" stroke="#BFBFBF"/>
<path opacity="0.5" d="M218 217V440C218 446.627 223.373 452 230 452H417" stroke="#BFBFBF" stroke-linecap="round"/>
<path opacity="0.5" d="M198 221V567" stroke="#BFBFBF"/>
<path opacity="0.5" d="M228 218H294.33C300.957 218 306.33 212.627 306.33 206V53C306.33 46.3726 311.703 41 318.33 41H405" stroke="#BFBFBF" stroke-linecap="round"/>
<path opacity="0.5" d="M212 36V106C212 112.627 206.627 118 200 118H67C60.3726 118 55 123.373 55 130V202" stroke="#BFBFBF" stroke-linecap="round"/>
<path opacity="0.5" d="M39 47V231.5" stroke="#BFBFBF"/>
<path opacity="0.24" d="M186 217H67" stroke="#BFBFBF"/>
<rect x="375" y="1" width="80" height="80" rx="12" fill="#F4F4F4"/>
<path d="M423.487 54.5734L423.484 54.5752C423.364 54.6558 423.234 54.7194 423.096 54.7642L423.094 54.765C422.759 54.8718 422.397 54.8507 422.077 54.7058L422.071 54.7032L422.071 54.7032C421.9 54.6229 421.743 54.5134 421.609 54.3798L421.601 54.3718L421.593 54.3635C421.466 54.2243 421.362 54.0647 421.286 53.8913L421.283 53.8841L421.283 53.884C421.206 53.6979 421.166 53.4982 421.167 53.2965V53.297H421.666L421.167 53.2957L423.487 54.5734ZM423.487 54.5734L428.163 51.3832M423.487 54.5734L428.163 51.3832M428.833 50.0966C428.836 49.8407 428.774 49.5883 428.652 49.363C428.531 49.1374 428.354 48.9464 428.139 48.8077C428.138 48.8072 428.137 48.8067 428.137 48.8062L423.521 45.7795L423.473 45.7467C423.269 45.6064 423.032 45.5219 422.785 45.5015C422.54 45.4813 422.293 45.5254 422.07 45.6293C421.8 45.7513 421.572 45.9485 421.411 46.1974C421.251 46.447 421.166 46.7379 421.167 47.0349L428.333 50.0937M428.833 50.0966C428.833 50.0977 428.833 50.0988 428.833 50.0998L428.333 50.0937M428.833 50.0966C428.833 50.0955 428.833 50.0943 428.833 50.0932L428.333 50.0937M428.833 50.0966C428.833 50.3467 428.774 50.5931 428.66 50.816M428.333 50.0937C428.334 50.267 428.292 50.4378 428.213 50.592M428.66 50.816C428.661 50.8145 428.662 50.8131 428.663 50.8116L428.213 50.592M428.66 50.816C428.547 51.0455 428.376 51.2411 428.163 51.3832M428.66 50.816C428.66 50.8173 428.659 50.8187 428.658 50.8201L428.213 50.592M428.213 50.592L428.163 51.3832M404.167 55.6654H414.255C414.548 56.1914 414.881 56.6929 415.253 57.1654H404.167C403.194 57.1654 402.262 56.7791 401.574 56.0914C400.886 55.4038 400.5 54.4712 400.5 53.4987V28.4987C400.5 27.5262 400.886 26.5936 401.574 25.906C402.262 25.2183 403.194 24.832 404.167 24.832H423.333C424.306 24.832 425.238 25.2183 425.926 25.906C426.614 26.5936 427 27.5262 427 28.4987V39.1876C425.205 38.7232 423.32 38.7053 421.511 39.1405C419.48 39.6289 417.624 40.6689 416.147 42.1457C414.67 43.6225 413.63 45.4787 413.142 47.5093C412.707 49.3186 412.724 51.2038 413.189 52.9987H402.5H402V53.4987C402 54.0733 402.228 54.6244 402.635 55.0308C403.041 55.4371 403.592 55.6654 404.167 55.6654ZM406.667 28.832C406.092 28.832 405.541 29.0603 405.135 29.4666C404.728 29.873 404.5 30.4241 404.5 30.9987V32.6654C404.5 33.24 404.728 33.7911 405.135 34.1974C405.541 34.6038 406.092 34.832 406.667 34.832H420C420.575 34.832 421.126 34.6038 421.532 34.1974C421.938 33.7911 422.167 33.24 422.167 32.6654V30.9987C422.167 30.4241 421.938 29.873 421.532 29.4666C421.126 29.0603 420.575 28.832 420 28.832H406.667ZM430.295 44.0371C431.92 45.6624 432.833 47.8668 432.833 50.1654C432.833 52.4639 431.92 54.6683 430.295 56.2936C428.67 57.9189 426.465 58.832 424.167 58.832C421.868 58.832 419.664 57.9189 418.038 56.2936C416.413 54.6683 415.5 52.4639 415.5 50.1654C415.5 47.8668 416.413 45.6624 418.038 44.0371C419.664 42.4118 421.868 41.4987 424.167 41.4987C426.465 41.4987 428.67 42.4118 430.295 44.0371Z" stroke="black" stroke-opacity="0.12"/>
<rect x="375.5" y="1.5" width="79" height="79" rx="11.5" stroke="black" stroke-opacity="0.12"/>
<rect x="375" y="413" width="80" height="80" rx="12" fill="#F4F4F4"/>
<path d="M402.813 438.722H402.313V439.222V452.599C402.08 452.455 401.897 452.333 401.74 452.229C401.722 452.217 401.705 452.205 401.688 452.194V438.409C401.688 438.239 401.827 438.098 402.001 438.098H427.905C427.988 438.098 428.068 438.13 428.126 438.189C428.185 438.247 428.217 438.327 428.218 438.409V452.161C428.051 452.271 427.851 452.403 427.596 452.559V439.222V438.722H427.096H402.813Z" stroke="black" stroke-opacity="0.12"/>
<path d="M419.758 455.772H416.336C416.333 455.773 416.323 455.774 416.307 455.777C416.281 455.782 416.25 455.791 416.219 455.803C416.152 455.83 416.122 455.858 416.113 455.871C416.096 455.899 416.072 455.97 416.061 456.08C416.056 456.128 416.055 456.171 416.055 456.202C416.055 456.217 416.055 456.229 416.055 456.235L416.055 456.241L416.055 456.241M419.758 455.772L416.055 456.241M419.758 455.772C419.626 455.937 419.497 456.12 419.367 456.303C419.342 456.338 419.318 456.373 419.293 456.408C418.932 456.915 417.997 457.422 416.396 456.877C416.283 456.838 416.171 456.782 416.056 456.713L419.758 455.772ZM416.055 456.241C416.056 456.241 416.056 456.241 416.055 456.241L416.055 456.241ZM416.056 460.23C416.413 460.284 416.802 460.321 417.202 460.321C418.8 460.321 419.92 459.559 420.804 458.675L420.804 458.675C421.276 458.203 421.689 457.523 421.9 456.914C422.005 456.612 422.076 456.283 422.048 455.982C422.042 455.913 422.03 455.843 422.011 455.772H422.159H422.201L422.242 455.765L422.159 455.272C422.242 455.765 422.242 455.765 422.242 455.765L422.243 455.765L422.243 455.765L422.245 455.765L422.25 455.764L422.268 455.761C422.283 455.758 422.304 455.754 422.332 455.749C422.388 455.738 422.468 455.723 422.57 455.701C422.774 455.657 423.065 455.589 423.417 455.491C424.121 455.297 425.079 454.983 426.09 454.507L426.09 454.507L426.094 454.505C426.117 454.494 426.156 454.476 426.2 454.456C426.273 454.422 426.363 454.381 426.422 454.351L426.422 454.351C426.777 454.173 427.07 454.014 427.335 453.869L427.337 453.868C428.08 453.456 428.535 453.153 428.843 452.947C428.896 452.912 428.945 452.879 428.99 452.849C429.157 452.74 429.25 452.688 429.325 452.661C429.479 452.606 429.587 452.58 429.663 452.571C429.661 452.577 429.659 452.583 429.657 452.589C429.648 452.617 429.637 452.653 429.627 452.693C429.627 452.692 429.626 452.694 429.624 452.7C429.605 452.744 429.491 453.008 429.163 453.41C428.802 453.851 428.198 454.441 427.222 455.058C426.218 455.692 425.233 456.226 424.498 456.602C424.13 456.79 423.827 456.937 423.615 457.038C423.509 457.088 423.427 457.126 423.371 457.152L423.308 457.181L423.292 457.188L423.289 457.19L423.288 457.19L423.288 457.19L423.288 457.19L423.288 457.19L422.878 457.374L423.017 457.801L423.017 457.801L423.017 457.801L423.017 457.801L423.017 457.802L423.019 457.809L423.029 457.839C423.037 457.866 423.049 457.907 423.065 457.961C423.096 458.069 423.14 458.228 423.189 458.43C423.288 458.833 423.407 459.402 423.49 460.061C423.657 461.392 423.667 463.03 423.111 464.412C421.996 467.178 419.713 467.804 418.62 467.804C418.101 467.804 417.438 467.609 416.913 467.229C416.398 466.856 416.056 466.338 416.056 465.683V460.23ZM429.798 452.58C429.798 452.58 429.797 452.579 429.797 452.579C429.797 452.579 429.798 452.58 429.798 452.58L429.798 452.58Z" stroke="black" stroke-opacity="0.12"/>
<path d="M414.611 458.853L414.613 458.854L414.626 458.859C414.638 458.863 414.656 458.869 414.681 458.878C414.73 458.894 414.803 458.918 414.897 458.946C415.084 459.002 415.35 459.076 415.663 459.142C416.119 459.239 416.658 459.322 417.205 459.322H417.205C418.436 459.322 419.315 458.753 420.1 457.969C420.46 457.608 420.795 457.06 420.959 456.588C421.042 456.348 421.065 456.173 421.055 456.074C421.055 456.072 421.055 456.069 421.055 456.067C420.986 456.048 420.948 456.05 420.928 456.054C420.903 456.058 420.861 456.072 420.79 456.13C420.623 456.268 420.446 456.517 420.138 456.951L420.111 456.989L420.11 456.99C419.434 457.939 417.99 458.476 416.076 457.824L416.075 457.823C415.766 457.717 415.499 457.554 415.27 457.391L415.27 457.391C414.839 457.084 414.471 456.695 414.186 456.393C414.152 456.357 414.12 456.322 414.088 456.289C413.931 456.123 413.811 456.004 413.713 455.925C413.671 455.892 413.644 455.875 413.63 455.868H407.836H407.794L407.753 455.861L407.836 455.368C407.753 455.861 407.753 455.861 407.753 455.861L407.752 455.861L407.752 455.861L407.75 455.86L407.746 455.86L407.729 455.857C407.715 455.854 407.695 455.851 407.669 455.846C407.618 455.836 407.544 455.821 407.45 455.801C407.261 455.761 406.992 455.698 406.665 455.61C406.01 455.432 405.116 455.147 404.158 454.718L404.157 454.717C404.137 454.708 404.117 454.699 404.097 454.69C403.932 454.616 403.754 454.536 403.574 454.446L414.611 458.853ZM414.611 458.853L414.611 458.853L414.611 458.853L414.611 458.853L414.611 458.853L413.94 458.609V459.323V465.776C413.94 466.43 413.598 466.949 413.082 467.324C412.557 467.705 411.893 467.901 411.375 467.901C410.281 467.901 407.999 467.273 406.885 464.506L406.885 464.506C406.328 463.124 406.338 461.486 406.505 460.155C406.588 459.496 406.708 458.928 406.806 458.524C406.855 458.323 406.899 458.163 406.931 458.055C406.946 458.001 406.959 457.96 406.967 457.933L406.976 457.903L406.978 457.897L406.979 457.896L406.979 457.896L406.979 457.896L406.979 457.896L407.118 457.468L406.707 457.284L414.611 458.853ZM400.922 452.891L400.922 452.891C400.803 452.815 400.731 452.778 400.672 452.757L400.67 452.756C400.516 452.7 400.408 452.675 400.332 452.666C400.334 452.671 400.336 452.676 400.337 452.681C400.347 452.71 400.359 452.748 400.369 452.789L400.922 452.891ZM400.922 452.891C400.99 452.934 401.068 452.986 401.161 453.048C401.456 453.244 401.895 453.536 402.57 453.913M400.922 452.891L402.57 453.913M402.57 453.913C402.901 454.098 403.235 454.276 403.574 454.446L402.57 453.913ZM406.707 457.284L406.707 457.284L406.706 457.284L406.703 457.282L406.687 457.275L406.624 457.246C406.568 457.221 406.486 457.182 406.38 457.132C406.168 457.032 405.864 456.884 405.497 456.697C404.762 456.322 403.777 455.788 402.775 455.154L406.707 457.284ZM400.281 452.5C400.281 452.5 400.281 452.5 400.281 452.501L400.281 452.5ZM400.199 452.674C400.198 452.675 400.198 452.675 400.197 452.675L400.197 452.675C400.198 452.675 400.198 452.675 400.199 452.674ZM402.774 455.153C402.38 454.903 402.003 454.626 401.647 454.323L402.774 455.153ZM417.198 448.169C417.784 447.583 418.578 447.254 419.406 447.254L416.283 450.377C416.283 449.548 416.612 448.754 417.198 448.169ZM419.406 447.254C421.129 447.254 422.527 448.653 422.527 450.377C422.527 452.1 421.129 453.499 419.406 453.499C417.681 453.499 416.283 452.1 416.283 450.377L419.406 447.254Z" stroke="black" stroke-opacity="0.12"/>
<path d="M407.703 450.377C407.703 448.653 409.101 447.254 410.824 447.254C412.549 447.254 413.948 448.653 413.948 450.377C413.948 452.1 412.549 453.499 410.824 453.499C409.1 453.499 407.703 452.1 407.703 450.377Z" stroke="black" stroke-opacity="0.12"/>
<rect x="375.5" y="413.5" width="79" height="79" rx="11.5" stroke="black" stroke-opacity="0.12"/>
<rect x="546" y="355" width="80" height="80" rx="12" fill="#F4F4F4"/>
<path d="M592.239 387.928L592.24 387.929C592.567 388.257 592.752 388.702 592.752 389.165C592.752 389.629 592.567 390.074 592.24 390.402L592.24 390.402L590.048 392.595C589.799 392.855 589.533 393.1 589.253 393.327M592.239 387.928L588.938 392.939M592.239 387.928C591.911 387.601 591.466 387.416 591.003 387.416C590.539 387.416 590.094 387.601 589.766 387.928L589.766 387.928L587.67 390.024L592.239 387.928ZM589.253 393.327C589.253 393.327 589.253 393.327 589.252 393.327L588.938 392.939M589.253 393.327C589.253 393.326 589.253 393.326 589.254 393.326L588.938 392.939M589.253 393.327C588.808 393.69 588.253 393.893 587.679 393.904L587.669 393.904L587.66 393.904C587.085 393.893 586.531 393.69 586.086 393.327M588.938 392.939C588.579 393.231 588.132 393.395 587.669 393.404C587.206 393.395 586.76 393.231 586.401 392.939M586.086 393.327C586.086 393.327 586.086 393.327 586.086 393.327L586.401 392.939M586.086 393.327C586.085 393.326 586.085 393.326 586.085 393.326L586.401 392.939M586.086 393.327C585.805 393.1 585.54 392.855 585.29 392.595M586.401 392.939C586.135 392.724 585.884 392.492 585.648 392.245M585.648 392.245L585.294 392.599L585.29 392.595M585.648 392.245L584.631 391.229L584.336 390.934L584.629 391.23L584.687 391.289L584.395 391.579L584.392 391.581L584.334 391.639M585.648 392.245L585.286 392.591C585.288 392.592 585.289 392.594 585.29 392.595M585.29 392.595L584.334 391.639M584.334 391.639L582.245 393.73M584.334 391.639L584.277 391.582L583.982 391.287L584.043 391.227L584.041 391.225M584.336 390.934L584.041 391.225M584.336 390.934L585.604 388.725M584.336 390.934L584.043 391.227L584.041 391.225M584.336 390.934L582.245 393.73M584.041 391.225L581.886 393.382M581.886 393.382C581.771 393.505 581.634 393.603 581.48 393.672C581.327 393.74 581.161 393.777 580.993 393.78C580.826 393.783 580.659 393.752 580.503 393.689C580.348 393.626 580.206 393.532 580.088 393.414C579.969 393.295 579.875 393.154 579.812 392.998C579.75 392.842 579.719 392.676 579.722 392.508C579.725 392.34 579.761 392.174 579.83 392.021C579.898 391.868 579.996 391.73 580.119 391.615M581.886 393.382L582.24 393.735L582.245 393.73M581.886 393.382L582.252 393.723C582.25 393.725 582.247 393.728 582.245 393.73M580.119 391.615L582.314 389.419C582.556 389.177 582.818 388.915 583.068 388.725C583.426 388.433 583.873 388.269 584.336 388.26C584.893 388.26 585.311 388.502 585.604 388.725M580.119 391.615L579.778 391.25C579.776 391.252 579.774 391.254 579.771 391.256L579.766 391.262L580.119 391.615ZM585.604 388.725L585.907 388.328C585.907 388.327 585.907 388.327 585.907 388.327L585.604 388.725ZM573.169 379.582V379.082H572.669H569.336C569.137 379.082 568.946 379.003 568.806 378.862C568.665 378.722 568.586 378.531 568.586 378.332C568.586 378.133 568.665 377.942 568.806 377.802C568.946 377.661 569.137 377.582 569.336 377.582H602.669C602.868 377.582 603.059 377.661 603.2 377.802C603.34 377.942 603.419 378.133 603.419 378.332C603.419 378.531 603.34 378.722 603.2 378.862C603.059 379.003 602.868 379.082 602.669 379.082H599.336H598.836V379.582V392.499C598.836 395.067 598.835 396.94 598.632 398.372C598.431 399.786 598.042 400.696 597.319 401.383C596.591 402.072 595.62 402.446 594.114 402.638C592.597 402.831 590.614 402.832 587.908 402.832H587.253H586.753V403.332V409.225V409.534L587.029 409.673L589.671 410.994L589.674 410.996C589.763 411.04 589.843 411.1 589.908 411.175C589.973 411.249 590.023 411.336 590.055 411.429C590.087 411.523 590.1 411.622 590.093 411.721C590.086 411.82 590.06 411.916 590.016 412.005C589.971 412.093 589.91 412.172 589.835 412.237C589.76 412.302 589.673 412.351 589.579 412.382C589.485 412.413 589.386 412.425 589.288 412.418C589.189 412.41 589.093 412.383 589.004 412.338L589.001 412.336L586.226 410.95L586.003 410.838L585.779 410.95L583.004 412.336L583.001 412.338C582.913 412.383 582.816 412.41 582.718 412.418C582.619 412.425 582.52 412.413 582.426 412.382C582.332 412.351 582.245 412.302 582.17 412.237C582.095 412.172 582.034 412.093 581.99 412.005C581.945 411.916 581.919 411.82 581.912 411.721C581.906 411.622 581.918 411.523 581.95 411.429C581.982 411.336 582.032 411.249 582.097 411.175C582.162 411.1 582.242 411.04 582.331 410.996L582.334 410.994L584.976 409.674L585.253 409.536V409.227V403.332V402.832H584.753H584.098C581.39 402.832 579.407 402.831 577.89 402.638C576.385 402.446 575.414 402.072 574.687 401.383C573.963 400.696 573.574 399.786 573.373 398.372C573.17 396.94 573.169 395.067 573.169 392.499V379.582ZM582.765 388.327C582.763 388.329 582.761 388.331 582.758 388.332C582.756 388.334 582.754 388.336 582.752 388.338L583.068 388.725L582.765 388.327Z" stroke="black" stroke-opacity="0.12"/>
<rect x="546.5" y="355.5" width="79" height="79" rx="11.5" stroke="black" stroke-opacity="0.12"/>
<rect x="727" y="269" width="80" height="80" rx="12" fill="#F4F4F4"/>
<path d="M753.669 296.168H753.669C752.887 296.167 752.23 296.439 751.669 297C751.109 297.56 750.836 298.218 750.836 299.001V306.835H760.335L753.669 296.168ZM753.669 296.168H780.336C781.119 296.168 781.777 296.441 782.337 297.002C782.898 297.562 783.17 298.219 783.169 299.001V299.001L753.669 296.168ZM750.836 319.001V319.002C750.835 319.783 751.107 320.441 751.668 321.001C752.228 321.561 752.886 321.835 753.669 321.835H780.336H780.337C781.118 321.836 781.775 321.563 782.336 321.003C782.896 320.442 783.169 319.784 783.169 319.001V311.168H773.67H773.669V310.668C773.364 310.669 773.072 310.593 772.794 310.44C772.516 310.286 772.308 310.057 772.169 309.751L750.836 319.001ZM750.836 319.001V311.168H758.985L761.718 316.634C761.899 317.027 762.178 317.337 762.553 317.544C762.902 317.737 763.276 317.836 763.67 317.835M750.836 319.001L771.718 309.967L770.336 307.203L765.62 316.634C765.439 317.026 765.16 317.336 764.786 317.542C764.437 317.735 764.063 317.834 763.67 317.835M763.67 317.835C763.67 317.835 763.67 317.835 763.669 317.835V317.335L763.671 317.835C763.671 317.835 763.67 317.835 763.67 317.835ZM770.335 300.251C770.712 300.25 771.074 300.327 771.417 300.482C771.814 300.662 772.103 300.969 772.287 301.369L775.02 306.835L762.287 308.035L763.669 310.8L768.385 301.368C768.569 300.97 768.859 300.663 769.255 300.484C769.597 300.329 769.959 300.251 770.335 300.251ZM770.335 300.251C770.335 300.251 770.336 300.251 770.336 300.251V300.751L770.334 300.251C770.334 300.251 770.335 300.251 770.335 300.251ZM783.669 306.835H783.169H783.669Z" stroke="black" stroke-opacity="0.12"/>
<rect x="727.5" y="269.5" width="79" height="79" rx="11.5" stroke="black" stroke-opacity="0.12"/>
<rect x="546" y="176" width="80" height="80" rx="12" fill="#F4F4F4"/>
<path d="M578.812 208.812H593.188V223.188H578.812V208.812Z" stroke="black" stroke-opacity="0.12"/>
<path d="M600.875 207.832V208.332H601.375H603.438V210.855H601.375H600.875V211.355V214.238V214.738H601.375H603.438V217.262H601.375H600.875V217.762V220.645V221.145H601.375H603.438V223.668H601.375H600.875V224.168V229.453C600.875 229.83 600.725 230.192 600.459 230.459C600.192 230.725 599.83 230.875 599.453 230.875H594.168H593.668V231.375V233.438H591.145V231.375V230.875H590.645H587.762H587.262V231.375V233.438H584.738V231.375V230.875H584.238H581.355H580.855V231.375V233.438H578.332V231.375V230.875H577.832H572.547C572.17 230.875 571.808 230.725 571.541 230.459C571.275 230.192 571.125 229.83 571.125 229.453V224.168V223.668H570.625H568.562V221.145H570.625H571.125V220.645V217.762V217.262H570.625H568.562V214.738H570.625H571.125V214.238V211.355V210.855H570.625H568.562V208.332H570.625H571.125V207.832V202.547C571.125 202.17 571.275 201.808 571.541 201.541C571.808 201.275 572.17 201.125 572.547 201.125H577.832H578.332V200.625V198.562H580.855V200.625V201.125H581.355H584.238H584.738V200.625V198.562H587.262V200.625V201.125H587.762H590.645H591.145V200.625V198.562H593.668V200.625V201.125H594.168H599.453C599.83 201.125 600.192 201.275 600.459 201.541C600.725 201.808 600.875 202.17 600.875 202.547V207.832ZM575.75 205.25H575.25V205.75V226.25V226.75H575.75H596.25H596.75V226.25V205.75V205.25H596.25H575.75Z" stroke="black" stroke-opacity="0.12"/>
<rect x="546.5" y="176.5" width="79" height="79" rx="11.5" stroke="black" stroke-opacity="0.12"/>
<rect x="546" y="534" width="80" height="80" rx="12" fill="#F4F4F4"/>
<mask id="mask0_24765_2212" style="mask-type:luminance" maskUnits="userSpaceOnUse" x="568" y="556" width="33" height="34">
<path d="M596 583.167H576V571.5C576 565.978 580.478 561.5 586 561.5C591.522 561.5 596 565.978 596 571.5V583.167Z" fill="white" stroke="white" stroke-width="1.75" stroke-linejoin="round"/>
<path d="M572.669 588.999H599.336M569.336 564.832L571.836 565.665M576.836 557.332L577.669 559.832M574.336 562.332L571.836 559.832" stroke="white" stroke-width="1.75" stroke-linecap="round" stroke-linejoin="round"/>
</mask>
<g mask="url(#mask0_24765_2212)">
<path d="M566 554H606V594H566V554Z" fill="#ff0000" class="hover:fill-current hover:text-black" />
</g>
<rect x="546.5" y="534.5" width="79" height="79" rx="11.5" stroke="black" stroke-opacity="0.12"/>
<rect x="7" y="354.5" width="80" height="80" rx="12" fill="#F4F4F4"/>
<g clip-path="url(#clip0_24765_2212)">
<path d="M53.3126 406.167C50.7926 395.41 50.4043 384.907 50.3459 381.96C50.3193 380.59 49.2026 379.5 47.8359 379.5H39.5576L53.3126 406.167ZM53.3126 406.167H54.4658M53.3126 406.167H54.4658M54.4658 406.167C54.4747 406.205 54.4835 406.243 54.4924 406.281L54.9793 406.167V405.667H54.8637C53.3957 399.235 52.6807 392.936 52.3328 388.333L54.4658 406.167ZM37.5407 382.086L37.5407 382.085C37.5319 381.815 37.5776 381.545 37.675 381.293C37.7724 381.04 37.9196 380.81 38.1077 380.616C38.2959 380.421 38.5213 380.266 38.7704 380.161C39.0195 380.055 39.2872 380 39.5578 380H47.8359C48.9311 380 49.8247 380.873 49.846 381.97L49.846 381.97C49.9046 384.93 50.294 395.474 52.8258 406.281L52.9162 406.667H53.3126H54.9793H55.6099L55.4661 406.053C53.9317 399.5 53.1911 393.037 52.8342 388.333H54.3926C55.5956 388.333 56.4767 389.363 56.4428 390.476L56.4428 390.477C56.3845 392.468 56.549 397.983 59.3808 406.327L59.4959 406.667H59.8543H62.0026C62.312 406.667 62.6088 406.79 62.8276 407.008C63.0464 407.227 63.1693 407.524 63.1693 407.833C63.1693 408.143 63.0464 408.44 62.8276 408.658C62.6088 408.877 62.312 409 62.0026 409H32.0026C31.6932 409 31.3964 408.877 31.1776 408.658C30.9589 408.439 30.8359 408.143 30.8359 407.833C30.8359 407.524 30.9589 407.227 31.1776 407.008C31.3964 406.79 31.6932 406.667 32.0026 406.667H34.0976H34.473L34.5777 406.306C37.6909 395.592 37.6363 385.113 37.5407 382.086Z" stroke="black" stroke-opacity="0.12"/>
</g>
<rect x="7.5" y="355" width="79" height="79" rx="11.5" stroke="black" stroke-opacity="0.12"/>
<rect x="7.5" y="534" width="80" height="80" rx="12" fill="#F4F4F4"/>
<path d="M51.0401 564.501H50.8326H45.8326C45.0811 564.501 44.3605 564.799 43.8291 565.331C43.2977 565.862 42.9992 566.583 42.9992 567.334V572.334C42.9992 572.644 43.1222 572.94 43.3409 573.159C43.5597 573.378 43.8565 573.501 44.1659 573.501C44.4753 573.501 44.7721 573.378 44.9909 573.159C45.2097 572.94 45.3326 572.644 45.3326 572.334V569.001V568.501H45.8326H58.9582L62.628 564.815L51.0401 564.501ZM51.0401 564.501L51.1867 564.354M51.0401 564.501L51.1867 564.354M51.1867 564.354L56.67 558.854L56.6709 558.853M51.1867 564.354L56.6709 558.853M56.6709 558.853C56.7794 558.744 56.9084 558.657 57.0506 558.598C57.1927 558.538 57.3452 558.508 57.4992 558.508C57.6533 558.508 57.8057 558.538 57.9479 558.598C58.0901 558.657 58.2191 558.744 58.3276 558.853L58.3283 558.854M56.6709 558.853L58.3283 558.854M58.3283 558.854L62.628 563.17L58.3283 558.854ZM32.0159 585.167L36.3159 589.484M32.0159 585.167L32.3705 584.815L36.6701 589.131L36.6709 589.132C36.7794 589.241 36.9084 589.328 37.0506 589.387C37.1927 589.447 37.3452 589.477 37.4992 589.477C37.6533 589.477 37.8057 589.447 37.9479 589.387C38.0901 589.328 38.2191 589.241 38.3276 589.132L38.329 589.131L45.479 581.981L45.6255 581.834H45.8326H52.4992C52.8087 581.834 53.1054 581.711 53.3242 581.492C53.543 581.274 53.6659 580.977 53.6659 580.667V579.001V578.501H54.1659H55.8326C56.142 578.501 56.4387 578.378 56.6575 578.159C56.8763 577.94 56.9992 577.644 56.9992 577.334V575.667V575.167H57.4992H59.1659C59.4753 575.167 59.7721 575.045 59.9909 574.826C60.2097 574.607 60.3326 574.31 60.3326 574.001V572.834H49.6659V574.001C49.6659 575.017 49.262 575.992 48.5431 576.711C47.8243 577.43 46.8492 577.834 45.8326 577.834H42.4992C41.4826 577.834 40.5076 577.43 39.7887 576.711C39.0698 575.992 38.6659 575.017 38.6659 574.001V570.208L36.3326 572.541V579.001V579.208L36.1861 579.354L32.3705 583.17C32.3704 583.17 32.3702 583.17 32.3701 583.17C32.1531 583.389 32.0312 583.684 32.0312 583.992C32.0312 584.301 32.1531 584.596 32.3701 584.815L36.3159 589.484M32.0159 585.167C31.7055 584.855 31.5312 584.433 31.5312 583.992C31.5312 583.552 31.7055 583.13 32.0159 582.817M32.0159 585.167V582.817M36.3159 589.484C36.4708 589.64 36.6552 589.764 36.8583 589.849M36.3159 589.484L36.8583 589.849M32.0159 582.817L35.8326 579.001L32.0159 582.817ZM62.9672 563.992C62.9672 563.684 62.8454 563.389 62.6283 563.17L62.9672 563.992ZM62.9672 563.992C62.9672 564.301 62.8454 564.596 62.6283 564.815L62.9672 563.992ZM36.8583 589.849C37.0614 589.934 37.2792 589.977 37.4992 589.977M36.8583 589.849L37.4992 589.977M37.4992 589.977C37.7193 589.977 37.9371 589.934 38.1402 589.849M37.4992 589.977L38.1402 589.849M38.1402 589.849C38.3433 589.764 38.5276 589.64 38.6826 589.484M38.1402 589.849L38.6826 589.484M38.6826 589.484L45.8326 582.334L38.6826 589.484Z" stroke="black" stroke-opacity="0.12"/>
<rect x="8" y="534.5" width="79" height="79" rx="11.5" stroke="black" stroke-opacity="0.12"/>
<rect x="170" y="178" width="80" height="80" rx="12" fill="#f4f4f4" />
<path d="M195.5 229.667V229.667V206.333C195.5 205.55 195.773 204.892 196.334 204.332C196.894 203.772 197.551 203.499 198.333 203.5H198.333H221.667C222.45 203.5 223.108 203.773 223.668 204.334C224.229 204.894 224.501 205.551 224.5 206.333V206.333V209.667V210.167H225H227.833V212.5H225H224.5V213V216.333V216.833H225H227.833V219.167H225H224.5V219.667V223V223.5H225H227.833V225.833H225H224.5V226.333V229.667C224.5 230.45 224.227 231.108 223.666 231.668C223.106 232.229 222.449 232.501 221.667 232.5H221.667H198.333C197.55 232.5 196.892 232.227 196.332 231.666C195.772 231.106 195.499 230.449 195.5 229.667ZM221.667 233H198.333C197.417 233 196.632 232.673 195.978 232.02C195.325 231.367 194.999 230.582 195 229.667V206.333C195 205.417 195.327 204.632 195.98 203.978C196.633 203.325 197.418 202.999 198.333 203L221.667 233ZM197.833 229.667V230.167H198.333H221.667H222.167V229.667V206.333V205.833H221.667H198.333H197.833V206.333V229.667ZM208.667 221.833V227.5H200.5V221.833H208.667ZM208.667 208.5V219.167H200.5V208.5H208.667ZM219.5 216.833V227.5H211.333V216.833H219.5ZM219.5 208.5V214.167H211.333V208.5H219.5Z" stroke="black" stroke-opacity="0.12"/>
<rect x="170.5" y="178.5" width="79" height="79" rx="11.5" stroke="black" stroke-opacity="0.12"/>
<rect x="7" y="2" width="80" height="80" rx="12" fill="#F4F4F4"/>
<g clip-path="url(#clip1_24765_2212)">
<path d="M47.6711 41.995H65.9735V43.5114H48.3022C47.516 43.5114 47.0562 43.9449 46.8473 44.1419C46.8338 44.1545 46.8214 44.1662 46.8101 44.1768L46.8093 44.1775C46.41 44.5487 44.8788 45.9632 43.4463 47.2859L41.5273 49.0576L41.0329 49.514L40.1357 48.6294L40.7173 48.0654C41.2911 47.5092 42.064 46.7602 42.8603 45.9895C44.4541 44.4468 46.1332 42.8249 46.5053 42.4783C46.8565 42.1554 47.2591 41.9955 47.6711 41.995ZM48.1887 39.4062L50.2882 32.3341L50.2883 32.3341L50.2895 32.3297C50.4157 31.8898 50.7769 31.2311 51.3769 30.6861C51.9677 30.1494 52.7714 29.7392 53.7917 29.7392H60.0711C61.0922 29.7392 61.8964 30.1495 62.4874 30.6862C63.0876 31.2311 63.448 31.8895 63.5729 32.3286L63.5729 32.3286L63.5746 32.3343L65.677 39.4062H63.8699L62.2946 33.9538L62.1902 33.5926H61.8142H60.7098H60.0515L60.2281 34.2267L61.671 39.4062H52.1929L53.6347 34.2266L53.8112 33.5926H53.153H52.0485H51.6724L51.5681 33.954L49.9958 39.4062H48.1887ZM41.8217 38.999L41.5084 39.6479L41.3817 39.9104C41.2424 40.0723 41.058 40.1896 40.8514 40.2469C40.6337 40.3072 40.4027 40.2978 40.1908 40.2199C39.6282 39.9639 38.6431 39.5447 37.8014 39.1906C37.3753 39.0113 36.9838 38.8478 36.6988 38.7291L36.3601 38.5883L36.2675 38.5499L36.2465 38.5412C35.8819 38.3676 35.7077 38.1638 35.4963 37.7941C35.4617 37.7327 35.3697 37.5292 35.2421 37.2296C35.1201 36.943 34.9788 36.6007 34.8519 36.2903L34.2619 34.8474L33.9025 36.3643L31.7238 45.5604L31.7103 45.6173L31.7103 45.6758L31.7135 59.9246L31.7135 59.9261C31.7173 61.1156 30.9247 61.9963 29.8314 61.9998L29.8307 61.9998C28.7234 62.0048 27.8899 61.1192 27.8806 59.941C27.8806 59.9405 27.8806 59.94 27.8806 59.9394L27.8672 43.1241C27.8672 43.124 27.8672 43.124 27.8672 43.1239C27.8672 42.7699 27.9396 42.1361 28.0404 41.4814C28.1404 40.8318 28.261 40.2085 28.3454 39.8863L28.3456 39.8863L28.3482 39.875L30.3912 31.2643L30.3912 31.2642C30.6848 30.0258 31.9267 29.2561 33.1473 29.558C34.264 29.8344 34.8 30.6077 35.0178 31.1516L35.0179 31.1517C35.0792 31.3048 35.185 31.5707 35.3173 31.9034C35.8355 33.2064 36.761 35.5334 37.0205 36.1135L37.0204 36.1135L37.0217 36.1164C37.208 36.5259 37.5756 36.722 37.6633 36.7629L37.6633 36.7629L37.6703 36.7661C37.7651 36.8085 37.9078 36.8649 38.0877 36.9361C38.1861 36.9749 38.2956 37.0182 38.4145 37.066C38.7645 37.2068 39.2321 37.4006 39.8359 37.6727L39.836 37.6728L40.526 37.9835L41.5162 38.4294L41.8217 38.999ZM59.2539 23.5885C59.5608 24.0477 59.7247 24.5875 59.7248 25.1398L56.9314 27.9333C56.3791 27.9332 55.8393 27.7693 55.3801 27.4624C54.9209 27.1555 54.563 26.7193 54.3517 26.209C54.1404 25.6987 54.0851 25.1372 54.1929 24.5955C54.3007 24.0538 54.5667 23.5562 54.9572 23.1657C55.3478 22.7751 55.8453 22.5091 56.387 22.4013C56.9287 22.2936 57.4902 22.3488 58.0005 22.5601C58.5108 22.7715 58.947 23.1293 59.2539 23.5885ZM59.7248 25.1399C59.7248 25.9439 59.4685 26.6382 59.0118 27.127C58.5601 27.6103 57.8749 27.9333 56.9315 27.9333L59.7248 25.1399ZM36.9727 23.1681C37.4947 23.6829 37.7934 24.3822 37.8046 25.1151C37.8041 25.4808 37.7319 25.8429 37.5919 26.1808C37.4515 26.5197 37.2457 26.8277 36.9863 27.0871C36.7269 27.3466 36.4189 27.5524 36.0799 27.6928C35.741 27.8332 35.3777 27.9054 35.0108 27.9054C34.6439 27.9054 34.2806 27.8332 33.9417 27.6928C33.6027 27.5524 33.2947 27.3466 33.0353 27.0871C32.7759 26.8277 32.5701 26.5197 32.4297 26.1808C32.2897 25.8429 32.2175 25.4808 32.217 25.1151C32.2282 24.3822 32.5269 23.6829 33.0489 23.1681C33.5717 22.6525 34.2765 22.3635 35.0108 22.3635C35.7451 22.3635 36.4499 22.6525 36.9727 23.1681Z" stroke="black" stroke-opacity="0.12"/>
<path d="M39.7872 46.6025L46.205 40.6293L45.3709 39.7344L38.9531 45.7082L39.7872 46.6025Z" fill="#E9E9E9"/>
</g>
<rect x="7.5" y="2.5" width="79" height="79" rx="11.5" stroke="black" stroke-opacity="0.12"/>
<g filter="url(#filter0_d_24765_2212)">
<path d="M368.728 196.767C368.728 197.767 368.728 198.447 368.728 199.135C368.728 208.893 368.686 218.657 368.763 228.415C368.777 230.145 368.325 230.672 366.539 230.638C360.648 230.513 354.749 230.547 348.857 230.624C347.46 230.645 347.078 230.179 347.078 228.853C347.113 213.379 347.05 197.899 347.127 182.425C347.155 176.098 350.51 171.757 356.215 170.354C358.806 169.715 361.391 169.972 363.816 171.105C372.911 175.327 381.985 179.584 391.066 183.835C399.834 187.939 408.575 192.093 417.364 196.148C418.559 196.697 418.538 197.496 418.538 198.496C418.531 221.192 418.538 243.889 418.538 266.585C418.538 273.343 418.518 280.101 418.559 286.858C418.566 287.997 418.233 288.497 417.135 288.997C411.889 291.365 406.72 293.9 401.509 296.359C400.064 297.04 398.598 297.665 396.888 298.422C396.888 297.581 396.888 296.977 396.888 296.366C396.888 268.648 396.874 240.923 396.93 213.206C396.93 211.629 396.416 210.886 395.047 210.191C386.668 205.934 378.344 201.566 370 197.246C369.708 197.093 369.381 197.017 368.735 196.78L368.728 196.767Z" fill="#3170B5"/>
</g>
<g filter="url(#filter1_d_24765_2212)">
<path d="M421.922 286.419V198.293C423.409 198.946 424.784 199.494 426.112 200.133C432.768 203.314 439.431 206.495 446.045 209.766C446.58 210.03 447.094 210.996 447.06 211.6C446.962 213.267 447.595 214.065 449.165 214.593C451.889 215.51 454.522 216.697 457.225 217.684C457.753 217.878 458.482 217.836 459.017 217.635C462.088 216.489 465.138 215.288 468.168 214.037C468.633 213.85 468.96 213.329 469.46 212.85C472.114 214.093 474.928 215.385 477.728 216.718C481.369 218.455 484.982 220.26 488.637 221.969C489.595 222.413 489.991 222.955 489.991 224.052C489.95 236.296 489.978 248.541 489.936 260.785C489.936 261.361 489.644 262.264 489.22 262.472C482.613 265.709 475.957 268.855 468.842 272.244C469.634 269.786 467.897 269.279 466.688 268.431C464.228 266.716 461.699 265.084 459.26 263.341C458.427 262.75 457.753 262.681 456.926 263.25C453.987 265.271 450.992 267.209 448.13 269.334C447.546 269.772 447.115 270.911 447.199 271.661C447.449 273.911 446.511 275.029 444.496 275.946C437.416 279.161 430.426 282.571 423.402 285.891C422.999 286.079 422.554 286.183 421.929 286.398L421.922 286.419ZM436.909 220.608V264.389C441.369 261.917 445.608 259.611 449.783 257.201C450.242 256.937 450.582 256.069 450.589 255.479C450.638 246.186 450.603 236.887 450.652 227.594C450.652 226.525 450.207 226.073 449.311 225.705C446.969 224.754 444.656 223.726 442.321 222.754C440.591 222.038 438.84 221.365 436.909 220.601V220.608ZM465.833 260.826C466.542 260.5 467.063 260.299 467.542 260.035C470.412 258.444 473.24 256.791 476.144 255.27C477.11 254.763 477.395 254.152 477.388 253.104C477.346 246.235 477.2 239.352 477.443 232.491C477.548 229.615 476.797 228.073 473.969 227.233C471.246 226.421 468.668 225.122 465.833 223.962V260.833V260.826Z" fill="#3170B5"/>
</g>
<g filter="url(#filter2_d_24765_2212)">
<path d="M347.192 321.998C347.157 321.269 347.102 320.602 347.102 319.929C347.102 300.003 347.102 280.071 347.102 260.145C347.102 257.805 347.102 257.805 349.471 257.805C355.307 257.805 361.15 257.847 366.987 257.77C368.397 257.749 368.758 258.235 368.752 259.555C368.724 276.536 368.738 293.516 368.696 310.497C368.696 311.108 368.293 312.046 367.807 312.282C361.192 315.546 354.536 318.706 347.88 321.887C347.741 321.957 347.56 321.936 347.199 321.991L347.192 321.998Z" fill="#3170B5"/>
</g>
<g filter="url(#filter3_d_24765_2212)">
<path d="M465.526 278.26C468.291 278.26 470.772 278.329 473.238 278.232C474.572 278.176 474.927 278.683 474.913 279.927C474.857 283.733 474.85 287.545 474.913 291.351C474.934 292.706 474.447 293.206 473.099 293.15C471.084 293.074 469.056 293.171 467.034 293.122C465.915 293.095 465.484 293.56 465.512 294.657C465.547 295.866 465.463 297.081 465.45 298.289C465.436 300.026 464.38 300.838 462.837 300.887C459.662 300.984 456.487 300.977 453.311 300.887C451.421 300.838 450.622 299.949 450.616 298.032C450.588 289.608 450.581 281.184 450.629 272.759C450.629 272.232 450.984 271.523 451.408 271.218C453.27 269.856 455.18 268.558 457.154 267.363C457.591 267.099 458.46 267.113 458.918 267.377C460.405 268.231 461.718 269.426 463.247 270.183C465.234 271.155 465.769 272.627 465.547 274.662C465.429 275.787 465.526 276.933 465.526 278.253V278.26Z" fill="#3170B5"/>
</g>
<g filter="url(#filter4_d_24765_2212)">
<path d="M355.716 254.313C352.423 254.313 349.136 254.341 345.843 254.307C342.661 254.272 341.007 252.556 341 249.348C340.993 245.889 340.986 242.43 341 238.965C341.007 235.853 342.758 233.957 345.857 233.937C352.666 233.881 359.482 233.895 366.291 233.964C366.798 233.964 367.555 234.52 367.771 234.999C368.938 237.68 370.022 240.396 371.023 243.146C371.245 243.764 371.203 244.618 370.967 245.25C370.022 247.834 368.883 250.355 367.958 252.945C367.576 254.015 366.993 254.341 365.93 254.327C362.525 254.286 359.121 254.313 355.716 254.313Z" fill="#3170B5"/>
</g>
<g filter="url(#filter5_d_24765_2212)">
<path d="M465.517 203.989C465.517 205.948 465.475 207.906 465.531 209.865C465.565 210.983 465.294 211.768 464.072 212.011C463.627 212.101 463.175 212.288 462.807 212.545C458.784 215.323 455.081 213.407 451.391 211.726C451.016 211.552 450.669 210.851 450.662 210.385C450.606 206.239 450.606 202.086 450.641 197.94C450.655 196.273 451.565 195.398 453.212 195.384C456.387 195.356 459.555 195.356 462.731 195.384C464.676 195.398 465.426 196.113 465.489 198.114C465.552 200.072 465.503 202.031 465.503 203.989C465.503 203.989 465.503 203.989 465.51 203.989H465.517Z" fill="#3170B5"/>
</g>
<rect x="170" y="2" width="80" height="80" rx="12" fill="#F4F4F4"/>
<path d="M203.875 48.125V46.375H205.625V48.125H203.875Z" fill="#E9E9E9"/>
<path d="M203.875 27.625H204.375V27.125C204.375 26.5614 204.599 26.0209 204.997 25.6224C205.396 25.2239 205.936 25 206.5 25H213.5C214.064 25 214.604 25.2239 215.003 25.6224C215.401 26.0209 215.625 26.5614 215.625 27.125V27.625H216.125H219.625C220.189 27.625 220.729 27.8489 221.128 28.2474C221.526 28.6459 221.75 29.1864 221.75 29.75V56.875C221.75 57.4386 221.526 57.9791 221.128 58.3776C220.729 58.7761 220.189 59 219.625 59H200.375C199.811 59 199.271 58.7761 198.872 58.3776C198.474 57.9791 198.25 57.4386 198.25 56.875V29.75C198.25 29.1864 198.474 28.6459 198.872 28.2474C199.271 27.8489 199.811 27.625 200.375 27.625H203.875ZM218.75 55.625H219.25V55.125V52.9375C219.25 52.3021 218.946 51.7754 218.526 51.3641C218.11 50.9569 217.557 50.6369 216.978 50.3909C215.822 49.8997 214.443 49.6533 213.5 49.6533C212.557 49.6533 211.178 49.8997 210.022 50.3909C209.443 50.6369 208.89 50.9569 208.474 51.3641C208.054 51.7754 207.75 52.3021 207.75 52.9375V55.125V55.625H208.25H218.75ZM205.528 26.1527C205.27 26.4106 205.125 26.7603 205.125 27.125V28.875C205.125 29.2397 205.27 29.5894 205.528 29.8473C205.786 30.1051 206.135 30.25 206.5 30.25H213.5C213.865 30.25 214.214 30.1051 214.472 29.8473C214.73 29.5894 214.875 29.2397 214.875 28.875V27.125C214.875 26.7603 214.73 26.4106 214.472 26.1527C214.214 25.8949 213.865 25.75 213.5 25.75H206.5C206.135 25.75 205.786 25.8949 205.528 26.1527ZM203 38C202.635 38 202.286 38.1449 202.028 38.4027C201.77 38.6606 201.625 39.0103 201.625 39.375C201.625 39.7397 201.77 40.0894 202.028 40.3473C202.286 40.6051 202.635 40.75 203 40.75H209.125C209.49 40.75 209.839 40.6051 210.097 40.3473C210.355 40.0894 210.5 39.7397 210.5 39.375C210.5 39.0103 210.355 38.6606 210.097 38.4027C209.839 38.1449 209.49 38 209.125 38H203ZM202.028 34.0277C201.77 34.2856 201.625 34.6353 201.625 35C201.625 35.3647 201.77 35.7144 202.028 35.9723C202.286 36.2301 202.635 36.375 203 36.375H216.562C216.927 36.375 217.277 36.2301 217.535 35.9723C217.793 35.7144 217.938 35.3647 217.938 35C217.938 34.6353 217.793 34.2856 217.535 34.0277C217.277 33.7699 216.927 33.625 216.562 33.625H203C202.635 33.625 202.286 33.7699 202.028 34.0277ZM202.028 44.5277C201.77 44.7856 201.625 45.1353 201.625 45.5V49C201.625 49.3647 201.77 49.7144 202.028 49.9723C202.286 50.2301 202.635 50.375 203 50.375H206.5C206.865 50.375 207.214 50.2301 207.472 49.9723C207.73 49.7144 207.875 49.3647 207.875 49V45.5C207.875 45.1353 207.73 44.7856 207.472 44.5277C207.214 44.2699 206.865 44.125 206.5 44.125H203C202.635 44.125 202.286 44.2699 202.028 44.5277ZM213.5 49.5C214.329 49.5 215.124 49.1708 215.71 48.5847C216.296 47.9987 216.625 47.2038 216.625 46.375C216.625 45.5462 216.296 44.7513 215.71 44.1653C215.124 43.5792 214.329 43.25 213.5 43.25C212.671 43.25 211.876 43.5792 211.29 44.1653C210.704 44.7513 210.375 45.5462 210.375 46.375C210.375 47.2038 210.704 47.9987 211.29 48.5847C211.876 49.1708 212.671 49.5 213.5 49.5Z" stroke="black" stroke-opacity="0.12"/>
<rect x="170.5" y="2.5" width="79" height="79" rx="11.5" stroke="black" stroke-opacity="0.12"/>
<rect x="7" y="178" width="80" height="80" rx="12" fill="#F4F4F4"/>
<g clip-path="url(#clip2_24765_2212)">
<path d="M39.382 218.72L39.382 218.72C39.4412 222.502 39.0862 226.286 38.3272 229.966L38.3271 229.966C38.1731 230.71 38.652 231.438 39.3941 231.591C40.1438 231.744 40.8657 231.267 41.0198 230.523C41.8201 226.646 42.1941 222.66 42.1321 218.677L39.382 218.72ZM39.382 218.72C39.32 214.78 42.4334 211.327 46.9375 211.33M39.382 218.72L46.9375 211.33M46.8935 214.08V214.081C49.5922 214.121 51.8463 216.265 51.8875 218.906M46.8935 214.08L54.6376 218.863C54.6989 222.81 54.4057 226.779 53.7638 230.657L53.7637 230.658C53.7467 230.761 53.6333 231.12 53.3708 231.411C53.1325 231.675 52.7735 231.889 52.1846 231.79L52.1839 231.79C51.4349 231.666 50.9277 230.958 51.0519 230.211L51.052 230.21C51.6662 226.492 51.9481 222.69 51.8875 218.906M46.8935 214.08L46.8882 214.08M46.8935 214.08L46.8882 214.08M51.8875 218.906L51.3876 218.914M51.8875 218.906C51.8875 218.906 51.8875 218.906 51.8875 218.906L51.3876 218.914M51.3876 218.914C51.3508 216.56 49.3321 214.617 46.886 214.58L51.3876 218.914ZM46.8882 214.08C43.8907 214.067 42.0961 216.39 42.1321 218.677L46.8882 214.08ZM46.8328 204.915L46.8328 204.915C45.6775 204.885 44.5131 205.023 43.3851 205.29L46.8328 204.915ZM46.8328 204.915L46.8387 204.916M46.8328 204.915L46.8387 204.916M46.8387 204.916C54.4767 205.029 60.7724 211.195 60.89 218.629C60.9382 221.735 60.7855 224.841 60.4331 227.927C60.404 228.177 60.2609 228.522 59.9986 228.781C59.7511 229.025 59.3999 229.194 58.9111 229.137L58.9098 229.137C58.1569 229.051 57.6147 228.369 57.7007 227.614C58.0391 224.661 58.1863 221.653 58.1398 218.672V218.672C58.0455 212.678 52.9461 207.758 46.7974 207.666V207.666M46.8387 204.916L46.7974 207.666M46.7974 207.666L46.7934 207.666M46.7974 207.666L46.7934 207.666M46.7934 207.666C45.8572 207.659 44.9252 207.753 44.0195 207.967C43.2788 208.139 42.5382 207.682 42.3632 206.946M46.7934 207.666L42.3632 206.946M64.4131 212.965L64.4119 212.965C63.6703 213.129 63.2018 213.862 63.3656 214.604L63.3657 214.604C63.7466 216.336 63.761 217.634 63.7446 219.529M64.4131 212.965L62.8774 214.712C63.2454 216.384 63.261 217.634 63.2446 219.524C63.236 220.561 64.0688 221.406 65.104 221.415M64.4131 212.965C65.1617 212.797 65.8862 213.268 66.0509 214.012M64.4131 212.965L66.4946 219.551M63.7446 219.529L63.2446 219.524L63.7446 219.528C63.7446 219.528 63.7446 219.528 63.7446 219.529ZM63.7446 219.529C63.7384 220.288 64.3479 220.908 65.1062 220.915M65.1062 220.915H65.104V221.415M65.1062 220.915H65.1196C65.8743 220.915 66.4883 220.307 66.4946 219.551M65.1062 220.915C65.1068 220.915 65.1075 220.915 65.1081 220.915L65.104 221.415M65.104 221.415L66.4946 219.551M66.4946 219.551V219.551L66.9946 219.555L66.4946 219.551ZM66.4946 219.551L66.4948 219.529C66.5088 217.806 66.5222 216.148 66.0509 214.012M66.0509 214.012L66.5384 213.904L66.0509 214.012C66.0509 214.012 66.0509 214.012 66.0509 214.012ZM62.9957 207.104L62.9955 207.104C59.2831 201.814 53.2071 198.599 46.7433 198.502C41.4211 198.438 36.5096 200.398 32.8576 204.052C29.3304 207.584 27.431 212.271 27.5101 217.262L27.5103 217.272L27.5102 217.272L27.5008 218.95L27.5008 218.962L27.5006 218.962C27.4783 219.721 28.0754 220.354 28.8339 220.376L28.8484 220.376L28.8583 220.377L28.8642 220.377L28.8758 220.377C29.6136 220.377 30.2241 219.79 30.2485 219.048L30.261 217.212C30.1955 212.978 31.8099 208.993 34.8041 205.997L62.9957 207.104ZM62.9957 207.104C63.4319 207.724 63.2823 208.582 62.6616 209.019C62.0379 209.454 61.1821 209.304 60.747 208.683L60.7468 208.683C57.5382 204.112 52.2887 201.335 46.7028 201.252L46.7025 201.252M62.9957 207.104L46.7025 201.252M46.7025 201.252C42.1709 201.187 37.9314 202.867 34.8042 205.997L46.7025 201.252ZM46.9375 211.33C51.1259 211.394 54.5732 214.784 54.6376 218.863L46.9375 211.33ZM42.3632 206.946C42.1892 206.206 42.6466 205.466 43.3848 205.29L42.3632 206.946ZM46.0986 236.495L46.0984 236.496C45.9278 237.103 45.3763 237.5 44.7758 237.5C44.1566 237.5 43.8115 237.21 43.6172 236.854C43.4038 236.463 43.3811 236.002 43.451 235.753L42.9696 235.618L43.451 235.753C44.9914 230.268 45.7231 224.78 45.6336 219.087C45.6356 218.329 46.2507 217.716 47.0086 217.716C47.7684 217.716 48.3834 218.331 48.3829 219.09H48.3828L48.3829 219.098C48.5038 226.778 47.1473 232.782 46.0986 236.495ZM35.1166 227.639L35.1166 227.639C35.0985 227.739 34.9825 228.093 34.7173 228.38C34.477 228.64 34.1134 228.851 33.5171 228.748C32.7706 228.612 32.2754 227.897 32.4093 227.15C32.9338 224.244 33.1755 221.267 33.1289 218.299C33.0807 215.235 34.1169 212.242 36.0438 209.873C36.5248 209.284 37.3877 209.195 37.9785 209.673C38.5675 210.153 38.6564 211.019 38.1785 211.607C36.6351 213.503 35.8405 215.805 35.879 218.256C35.9285 221.401 35.6725 224.558 35.1166 227.639Z" stroke="black" stroke-opacity="0.12"/>
</g>
<rect x="7.5" y="178.5" width="79" height="79" rx="11.5" stroke="black" stroke-opacity="0.12"/>
<rect x="170" y="534" width="80" height="80" rx="12" fill="#F4F4F4"/>
<g clip-path="url(#clip3_24765_2212)">
<path d="M202.5 562H203V561.5V560.25C203 559.388 203.342 558.561 203.952 557.952C204.561 557.342 205.388 557 206.25 557H213.75C214.612 557 215.439 557.342 216.048 557.952C216.658 558.561 217 559.388 217 560.25V561.5V562H217.5H226.25C227.112 562 227.939 562.342 228.548 562.952C229.158 563.561 229.5 564.388 229.5 565.25V568.326L210.836 573.302C210.288 573.448 209.712 573.448 209.164 573.302L190.5 568.326V565.25C190.5 564.388 190.842 563.561 191.452 562.952C192.061 562.342 192.888 562 193.75 562H202.5ZM215 562H215.5V561.5V560.25C215.5 559.786 215.316 559.341 214.987 559.013C214.659 558.684 214.214 558.5 213.75 558.5H206.25C205.786 558.5 205.341 558.684 205.013 559.013C204.684 559.341 204.5 559.786 204.5 560.25V561.5V562H205H215Z" stroke="black" stroke-opacity="0.12"/>
<path d="M191.452 587.548C190.842 586.939 190.5 586.112 190.5 585.25V571.776L209.549 576.851C209.549 576.851 209.549 576.851 209.549 576.851C209.845 576.93 210.156 576.93 210.451 576.851L229.5 571.776V585.25C229.5 586.112 229.158 586.939 228.548 587.548C227.939 588.158 227.112 588.5 226.25 588.5H193.75C192.888 588.5 192.061 588.158 191.452 587.548Z" stroke="black" stroke-opacity="0.12"/>
</g>
<rect x="170.5" y="534.5" width="79" height="79" rx="11.5" stroke="black" stroke-opacity="0.12"/>
<g clip-path="url(#clip4_24765_2212)">
<path d="M589.838 38.2822L590.018 38.4292L590.246 38.3865L597.866 36.9615L597.866 36.9615C598.693 36.8069 599.546 36.8868 600.329 37.1922C601.111 37.4974 601.793 38.0156 602.296 38.688C602.297 38.6885 602.297 38.689 602.297 38.6895L602.562 39.047C602.837 39.4412 602.961 39.737 602.886 40.1006L602.886 40.1014C602.724 40.8939 602.345 41.6255 601.79 42.2144C601.236 42.8032 600.528 43.226 599.747 43.4353L574.55 50.1836C574.55 50.1837 574.55 50.1837 574.55 50.1837C574.155 50.2895 573.736 50.2714 573.352 50.132C572.967 49.9925 572.634 49.7383 572.398 49.4036L567.959 43.1013C567.959 43.1012 567.959 43.1011 567.959 43.101C567.928 43.0572 567.908 43.0066 567.901 42.9536C567.894 42.9004 567.9 42.8464 567.919 42.796C567.937 42.7456 567.967 42.7004 568.007 42.6642C568.046 42.628 568.094 42.6018 568.146 42.5879L568.146 42.5879L570.851 41.8612C571.169 41.7758 571.503 41.7704 571.824 41.8453C572.145 41.9202 572.442 42.0731 572.689 42.2906L573.933 43.3838L574.033 43.4723L574.165 43.4986L574.181 43.5019L574.325 43.5307L574.461 43.4774L581.46 40.7444C581.536 40.715 581.604 40.6679 581.659 40.6071C581.715 40.5446 581.755 40.4694 581.775 40.388C581.795 40.3066 581.795 40.2215 581.776 40.14C581.757 40.0635 581.721 39.9925 581.671 39.9322L573.798 30.3429C573.762 30.2998 573.738 30.2486 573.728 30.1938C573.718 30.1391 573.721 30.0826 573.738 30.0296C573.755 29.9765 573.785 29.9286 573.826 29.8901C573.866 29.8517 573.915 29.8241 573.969 29.8096C573.969 29.8096 573.969 29.8096 573.969 29.8096L577.119 28.9663C577.119 28.9663 577.119 28.9663 577.119 28.9663C577.425 28.8845 577.746 28.8765 578.055 28.943C578.365 29.0096 578.655 29.1487 578.9 29.349L589.838 38.2822ZM600.999 55.8333C601.296 55.8336 601.582 55.9475 601.798 56.1516C602.015 56.3558 602.145 56.6348 602.162 56.9316C602.18 57.2285 602.083 57.5208 601.892 57.7488C601.704 57.9734 601.439 58.1189 601.149 58.1568L600.984 58.1666H571C570.703 58.1663 570.417 58.0525 570.2 57.8483C569.984 57.6442 569.854 57.3652 569.837 57.0684C569.819 56.7715 569.916 56.4792 570.107 56.2512C570.295 56.0266 570.56 55.881 570.85 55.8431L571.014 55.8333H600.999Z" stroke="black" stroke-opacity="0.12"/>
</g>
<rect x="546.5" y="2.5" width="79" height="79" rx="11.5" stroke="black" stroke-opacity="0.12"/>
<rect x="726.5" y="92" width="80" height="80" rx="12" fill="#F4F4F4"/>
<path d="M776.5 114.5H780.5C780.898 114.5 781.279 114.658 781.561 114.939C781.842 115.221 782 115.602 782 116V149.484H775V116C775 115.602 775.158 115.221 775.439 114.939C775.721 114.658 776.102 114.5 776.5 114.5ZM764.5 126.5H768.5C768.898 126.5 769.279 126.658 769.561 126.939C769.842 127.221 770 127.602 770 128V149.484H763V128C763 127.602 763.158 127.221 763.439 126.939C763.721 126.658 764.102 126.5 764.5 126.5ZM752.5 138.5H756.5C756.898 138.5 757.279 138.658 757.561 138.939C757.842 139.221 758 139.602 758 140V149.484H751V140C751 139.602 751.158 139.221 751.439 138.939C751.721 138.658 752.102 138.5 752.5 138.5Z" stroke="black" stroke-opacity="0.12"/>
<rect x="727" y="92.5" width="79" height="79" rx="11.5" stroke="black" stroke-opacity="0.12"/>
<rect x="727" y="446" width="80" height="80" rx="12" fill="#F4F4F4"/>
<path d="M767.437 501.891L767.082 497.624L767.043 497.165H766.583H766.167C762.353 497.165 759.133 495.842 756.479 493.187C753.824 490.532 752.5 487.313 752.5 483.499C752.5 479.685 753.824 476.465 756.479 473.811C759.133 471.156 762.353 469.832 766.167 469.832C768.075 469.832 769.848 470.188 771.491 470.895C773.142 471.606 774.589 472.584 775.835 473.83C777.08 475.077 778.058 476.524 778.769 478.175C779.476 479.816 779.832 481.589 779.833 483.499C779.833 485.527 779.502 487.47 778.841 489.331C778.175 491.204 777.266 492.94 776.114 494.54C774.961 496.142 773.588 497.597 771.995 498.904C770.587 500.059 769.068 501.054 767.437 501.891ZM764.417 487.332L764.417 487.832L766.166 475.499C764.845 475.499 763.701 475.869 762.767 476.633C761.865 477.37 761.225 478.273 760.86 479.336L760.705 479.789L761.151 479.964L763.484 480.881L763.992 481.08L764.146 480.556C764.262 480.164 764.486 479.759 764.84 479.342C765.111 479.022 765.524 478.831 766.166 478.832H766.167C766.825 478.832 767.231 479.013 767.481 479.291C767.784 479.628 767.916 479.971 767.917 480.333C767.917 480.699 767.811 481.018 767.598 481.306C767.34 481.655 767.029 482.013 766.66 482.382C766.17 482.802 765.767 483.187 765.455 483.535C765.145 483.882 764.904 484.216 764.769 484.531C764.515 485.122 764.416 486.084 764.417 487.332ZM766.125 493.124C766.73 493.124 767.26 492.905 767.687 492.477C768.114 492.05 768.333 491.52 768.333 490.915C768.333 490.311 768.114 489.781 767.687 489.353C767.26 488.926 766.73 488.707 766.125 488.707C765.52 488.707 764.99 488.926 764.563 489.353C764.136 489.781 763.917 490.311 763.917 490.915C763.917 491.52 764.136 492.05 764.563 492.477C764.99 492.905 765.52 493.124 766.125 493.124Z" stroke="black" stroke-opacity="0.12"/>
<rect x="727.5" y="446.5" width="79" height="79" rx="11.5" stroke="black" stroke-opacity="0.12"/>
<defs>
<filter id="filter0_d_24765_2212" x="343.078" y="170.012" width="79.4844" height="136.41" filterUnits="userSpaceOnUse" color-interpolation-filters="sRGB">
<feFlood flood-opacity="0" result="BackgroundImageFix"/>
<feColorMatrix in="SourceAlpha" type="matrix" values="0 0 0 0 0 0 0 0 0 0 0 0 0 0 0 0 0 0 127 0" result="hardAlpha"/>
<feOffset dy="4"/>
<feGaussianBlur stdDeviation="2"/>
<feComposite in2="hardAlpha" operator="out"/>
<feColorMatrix type="matrix" values="0 0 0 0 0 0 0 0 0 0 0 0 0 0 0 0 0 0 0.25 0"/>
<feBlend mode="normal" in2="BackgroundImageFix" result="effect1_dropShadow_24765_2212"/>
<feBlend mode="normal" in="SourceGraphic" in2="effect1_dropShadow_24765_2212" result="shape"/>
</filter>
<filter id="filter1_d_24765_2212" x="417.922" y="198.293" width="76.0703" height="96.125" filterUnits="userSpaceOnUse" color-interpolation-filters="sRGB">
<feFlood flood-opacity="0" result="BackgroundImageFix"/>
<feColorMatrix in="SourceAlpha" type="matrix" values="0 0 0 0 0 0 0 0 0 0 0 0 0 0 0 0 0 0 127 0" result="hardAlpha"/>
<feOffset dy="4"/>
<feGaussianBlur stdDeviation="2"/>
<feComposite in2="hardAlpha" operator="out"/>
<feColorMatrix type="matrix" values="0 0 0 0 0 0 0 0 0 0 0 0 0 0 0 0 0 0 0.25 0"/>
<feBlend mode="normal" in2="BackgroundImageFix" result="effect1_dropShadow_24765_2212"/>
<feBlend mode="normal" in="SourceGraphic" in2="effect1_dropShadow_24765_2212" result="shape"/>
</filter>
<filter id="filter2_d_24765_2212" x="343.102" y="257.77" width="29.6484" height="72.2305" filterUnits="userSpaceOnUse" color-interpolation-filters="sRGB">
<feFlood flood-opacity="0" result="BackgroundImageFix"/>
<feColorMatrix in="SourceAlpha" type="matrix" values="0 0 0 0 0 0 0 0 0 0 0 0 0 0 0 0 0 0 127 0" result="hardAlpha"/>
<feOffset dy="4"/>
<feGaussianBlur stdDeviation="2"/>
<feComposite in2="hardAlpha" operator="out"/>
<feColorMatrix type="matrix" values="0 0 0 0 0 0 0 0 0 0 0 0 0 0 0 0 0 0 0.25 0"/>
<feBlend mode="normal" in2="BackgroundImageFix" result="effect1_dropShadow_24765_2212"/>
<feBlend mode="normal" in="SourceGraphic" in2="effect1_dropShadow_24765_2212" result="shape"/>
</filter>
<filter id="filter3_d_24765_2212" x="446.594" y="267.172" width="32.3203" height="41.7852" filterUnits="userSpaceOnUse" color-interpolation-filters="sRGB">
<feFlood flood-opacity="0" result="BackgroundImageFix"/>
<feColorMatrix in="SourceAlpha" type="matrix" values="0 0 0 0 0 0 0 0 0 0 0 0 0 0 0 0 0 0 127 0" result="hardAlpha"/>
<feOffset dy="4"/>
<feGaussianBlur stdDeviation="2"/>
<feComposite in2="hardAlpha" operator="out"/>
<feColorMatrix type="matrix" values="0 0 0 0 0 0 0 0 0 0 0 0 0 0 0 0 0 0 0.25 0"/>
<feBlend mode="normal" in2="BackgroundImageFix" result="effect1_dropShadow_24765_2212"/>
<feBlend mode="normal" in="SourceGraphic" in2="effect1_dropShadow_24765_2212" result="shape"/>
</filter>
<filter id="filter4_d_24765_2212" x="336.992" y="233.902" width="38.1797" height="28.4258" filterUnits="userSpaceOnUse" color-interpolation-filters="sRGB">
<feFlood flood-opacity="0" result="BackgroundImageFix"/>
<feColorMatrix in="SourceAlpha" type="matrix" values="0 0 0 0 0 0 0 0 0 0 0 0 0 0 0 0 0 0 127 0" result="hardAlpha"/>
<feOffset dy="4"/>
<feGaussianBlur stdDeviation="2"/>
<feComposite in2="hardAlpha" operator="out"/>
<feColorMatrix type="matrix" values="0 0 0 0 0 0 0 0 0 0 0 0 0 0 0 0 0 0 0.25 0"/>
<feBlend mode="normal" in2="BackgroundImageFix" result="effect1_dropShadow_24765_2212"/>
<feBlend mode="normal" in="SourceGraphic" in2="effect1_dropShadow_24765_2212" result="shape"/>
</filter>
<filter id="filter5_d_24765_2212" x="446.617" y="195.363" width="22.9141" height="26.5859" filterUnits="userSpaceOnUse" color-interpolation-filters="sRGB">
<feFlood flood-opacity="0" result="BackgroundImageFix"/>
<feColorMatrix in="SourceAlpha" type="matrix" values="0 0 0 0 0 0 0 0 0 0 0 0 0 0 0 0 0 0 127 0" result="hardAlpha"/>
<feOffset dy="4"/>
<feGaussianBlur stdDeviation="2"/>
<feComposite in2="hardAlpha" operator="out"/>
<feColorMatrix type="matrix" values="0 0 0 0 0 0 0 0 0 0 0 0 0 0 0 0 0 0 0.25 0"/>
<feBlend mode="normal" in2="BackgroundImageFix" result="effect1_dropShadow_24765_2212"/>
<feBlend mode="normal" in="SourceGraphic" in2="effect1_dropShadow_24765_2212" result="shape"/>
</filter>
<clipPath id="clip0_24765_2212">
<rect width="40" height="40" fill="white" transform="translate(27 374.5)"/>
</clipPath>
<clipPath id="clip1_24765_2212">
<rect width="41" height="41" fill="white" transform="translate(26.5 21.5)"/>
</clipPath>
<clipPath id="clip2_24765_2212">
<rect width="40" height="40" fill="white" transform="translate(27 198)"/>
</clipPath>
<clipPath id="clip3_24765_2212">
<rect width="40" height="40" fill="white" transform="translate(190 554)"/>
</clipPath>
<clipPath id="clip4_24765_2212">
<rect width="40" height="40" fill="white" transform="translate(566 22)"/>
</clipPath>
</defs>
</svg>
